<svg id="e79786c2-3a71-48a3-8549-7bc9de9a0a66" data-name="Capa 1" xmlns="http://www.w3.org/2000/svg" viewBox="0 0 800 800"><g id="f5181cc7-882e-433b-83d3-f2aed80e854f" data-name="Capa 2"><path d="M97.5,168.5l31-41-48-26s-45-1-30,39Z" style="fill:#e60012;stroke:#303030;stroke-linecap:round;stroke-linejoin:round;stroke-width:4px"/><polygon points="105.3 158.18 128.5 193.76 143 216 149 235 262 516 297 514 668 467 692 267 221 224 173 158 122.83 135 105.3 158.18" style="fill:none;stroke:#303030;stroke-linecap:round;stroke-linejoin:round;stroke-width:4px"/><polyline points="129 194 156 185 295 491 265.23 515.82" style="fill:none;stroke:#303030;stroke-linecap:round;stroke-linejoin:round;stroke-width:4px"/><polyline points="143.65 218.04 221 224 368 435 345 471 275 422 264.19 423.17" style="fill:none;stroke:#303030;stroke-linecap:round;stroke-linejoin:round;stroke-width:4px"/><line x1="148.27" y1="232.67" x2="690.02" y2="283.52" style="fill:none;stroke:#303030;stroke-linecap:round;stroke-linejoin:round;stroke-width:4px"/><line x1="188.89" y1="334.19" x2="682.38" y2="347.19" style="fill:none;stroke:#303030;stroke-linecap:round;stroke-linejoin:round;stroke-width:4px"/><line x1="232.3" y1="442.15" x2="673.93" y2="417.61" style="fill:none;stroke:#303030;stroke-linecap:round;stroke-linejoin:round;stroke-width:4px"/><line x1="232.55" y1="240.58" x2="356.51" y2="506.46" style="fill:none;stroke:#303030;stroke-linecap:round;stroke-linejoin:round;stroke-width:4px"/><line x1="321.06" y1="248.89" x2="424.43" y2="497.86" style="fill:none;stroke:#303030;stroke-linecap:round;stroke-linejoin:round;stroke-width:4px"/><line x1="400" y1="256.3" x2="482.66" y2="490.48" style="fill:none;stroke:#303030;stroke-linecap:round;stroke-linejoin:round;stroke-width:4px"/><line x1="470.33" y1="262.9" x2="533.51" y2="484.04" style="fill:none;stroke:#303030;stroke-linecap:round;stroke-linejoin:round;stroke-width:4px"/><line x1="527.09" y1="268.23" x2="579.67" y2="478.19" style="fill:none;stroke:#303030;stroke-linecap:round;stroke-linejoin:round;stroke-width:4px"/><line x1="582.97" y1="273.47" x2="611.13" y2="474.2" style="fill:none;stroke:#303030;stroke-linecap:round;stroke-linejoin:round;stroke-width:4px"/><line x1="641.23" y1="278.94" x2="638.8" y2="470.7" style="fill:none;stroke:#303030;stroke-linecap:round;stroke-linejoin:round;stroke-width:4px"/><polyline points="274.58 515.28 221 601 221 615 331 620 337 617 247 604 245 594 299.15 513.73" style="fill:none;stroke:#303030;stroke-linecap:round;stroke-linejoin:round;stroke-width:4px"/><polyline points="460.77 493.25 461 498 399 600 404 616 502 618 510 613 422 610 418 598 479 498 479.77 490.85" style="fill:none;stroke:#303030;stroke-linecap:round;stroke-linejoin:round;stroke-width:4px"/><path d="M221,615v18s0,8,7,8,464-21,464-21l-28-27-417.47,8.67Z" style="fill:none;stroke:#303030;stroke-linecap:round;stroke-linejoin:round;stroke-width:4px"/><polygon points="203.87 290.37 220 290 256 379 249.27 390.33 203.87 290.37" style="fill:#e60012;stroke:#303030;stroke-linecap:round;stroke-linejoin:round;stroke-width:4px"/><polygon points="250.3 641 259 661 304 658 289.04 638.37 250.3 641" style="fill:#966932;stroke:#303030;stroke-linecap:round;stroke-linejoin:round;stroke-width:4px"/><path d="M262,676s27-12,37,20l5-38-45,3Z" style="fill:#966932;stroke:#303030;stroke-linecap:round;stroke-linejoin:round;stroke-width:4px"/><path d="M297.75,692.45a12.23,12.23,0,0,1,.52,7.37c-1.76,7.27-7.33,22.43-23.27,23.18-21.62,1-26-20-26-20s-4-18,13-27C262,676,286.93,664.92,297.75,692.45Z" style="fill:#535252;stroke:#303030;stroke-linecap:round;stroke-linejoin:round;stroke-width:4px"/><path d="M262,676s5,26,15,30c8.56,3.42,14,1,22-10C299,696,292,665,262,676Z" style="fill:#ec6941;stroke:#303030;stroke-linecap:round;stroke-linejoin:round;stroke-width:4px"/><polygon points="608.3 625 617 645 662 642 647.04 622.37 608.3 625" style="fill:#966932;stroke:#303030;stroke-linecap:round;stroke-linejoin:round;stroke-width:4px"/><path d="M620,660s27-12,37,20l5-38-45,3Z" style="fill:#966932;stroke:#303030;stroke-linecap:round;stroke-linejoin:round;stroke-width:4px"/><path d="M655.75,676.45a12.23,12.23,0,0,1,.52,7.37c-1.76,7.27-7.33,22.43-23.27,23.18-21.62,1-26-20-26-20s-4-18,13-27C620,660,644.93,648.92,655.75,676.45Z" style="fill:#535252;stroke:#303030;stroke-linecap:round;stroke-linejoin:round;stroke-width:4px"/><path d="M620,660s5,26,15,30c8.56,3.42,14,1,22-10C657,680,650,649,620,660Z" style="fill:#ec6941;stroke:#303030;stroke-linecap:round;stroke-linejoin:round;stroke-width:4px"/></g></svg>