<?xml version="1.0" encoding="utf-8"?>
<!-- Generator: Adobe Illustrator 24.0.3, SVG Export Plug-In . SVG Version: 6.00 Build 0)  -->
<svg version="1.1" id="Layer_1" xmlns="http://www.w3.org/2000/svg" xmlns:xlink="http://www.w3.org/1999/xlink" x="0px" y="0px"
	 viewBox="0 0 792 192.7" style="enable-background:new 0 0 792 192.7;" xml:space="preserve">
<g>
	<g>
		<g>
			<path style="fill:#FFCC0D;" d="M168.2,74.3c0.2-0.3,0.3-0.6,0.5-0.9C168.6,73.7,168.4,74,168.2,74.3z"/>
			<path style="fill:#FFCC0D;" d="M171.6,67.7c0.1-0.2,0.2-0.4,0.3-0.7C171.8,67.2,171.7,67.5,171.6,67.7z"/>
			<path style="fill:#FFCC0D;" d="M141.5,103.2c1.8-1.2,3.3-2.6,5-3.9c18.5-17.3,26.7-38.6,18.6-52.6C154.9,29.1,123,29.7,93.7,48
				c-24,15-38.7,37.2-37.6,54.4c0.1,1.4-0.6,2.9-1.9,3.5l-17.8,10.1c-3.5,14.5-2.7,28.1,2.9,37.8c1.1,1.9,2.3,3.5,3.8,5.2l34.1-34.2
				c0.4-0.4,0.9-0.7,1.5-0.8c-4.6-1.7-8.4-4.6-10.7-8.6c-8.4-14.5,4.4-38.5,28.6-53.8c24.2-15.1,50.7-15.6,59.1-1.1
				C162.2,72,156,89,141.5,103.2z M77.4,124.7C77.5,124.7,77.5,124.7,77.4,124.7c0,0.1-0.1,0.1-0.2,0.2L77.4,124.7z"/>
			<path style="fill:#FFCC0D;" d="M170.6,69.9c0.1-0.2,0.2-0.5,0.4-0.7C170.9,69.4,170.7,69.7,170.6,69.9z"/>
			<path style="fill:#FFCC0D;" d="M175.6,54.5L175.6,54.5L175.6,54.5z"/>
			<path style="fill:#FFCC0D;" d="M169.5,72.1c0.1-0.3,0.3-0.5,0.4-0.8C169.8,71.6,169.6,71.8,169.5,72.1z"/>
			<path style="fill:#FFCC0D;" d="M174.7,58.9c0-0.1,0.1-0.2,0.1-0.3C174.7,58.7,174.7,58.8,174.7,58.9z"/>
			<path style="fill:#FFCC0D;" d="M175.2,56.7c0-0.1,0-0.1,0-0.2C175.2,56.6,175.2,56.6,175.2,56.7z"/>
			<path style="fill:#FFCC0D;" d="M173.4,63.3c0.1-0.2,0.1-0.3,0.2-0.5C173.5,62.9,173.5,63.1,173.4,63.3z"/>
			<path style="fill:#FFCC0D;" d="M174.1,61.1c0-0.1,0.1-0.3,0.1-0.4C174.2,60.8,174.1,61,174.1,61.1z"/>
			<path style="fill:#FFCC0D;" d="M172.5,65.5c0.1-0.2,0.2-0.4,0.2-0.6C172.7,65.1,172.6,65.3,172.5,65.5z"/>
			<path style="fill:#FFCC0D;" d="M160.7,85.1c0.3-0.4,0.6-0.7,0.8-1.1C161.2,84.4,160.9,84.8,160.7,85.1z"/>
			<path style="fill:#FFCC0D;" d="M162.4,83c0.3-0.3,0.5-0.7,0.7-1C162.9,82.3,162.6,82.6,162.4,83z"/>
			<path style="fill:#FFCC0D;" d="M164,80.8c0.2-0.3,0.5-0.7,0.6-1C164.4,80.2,164.2,80.5,164,80.8z"/>
			<path style="fill:#FFCC0D;" d="M158.9,87.2c0.3-0.4,0.6-0.7,0.8-1.1C159.5,86.5,159.2,86.9,158.9,87.2z"/>
			<path style="fill:#FFCC0D;" d="M157.1,89.3c0.3-0.4,0.6-0.7,0.9-1.1C157.6,88.6,157.3,88.9,157.1,89.3z"/>
			<path style="fill:#FFCC0D;" d="M152.1,94.3c-0.4,0.4-0.8,0.8-1.2,1.1C151.3,95,151.7,94.6,152.1,94.3z"/>
			<path style="fill:#FFCC0D;" d="M154.1,92.3c-0.4,0.4-0.7,0.8-1.1,1.1C153.4,93,153.7,92.6,154.1,92.3z"/>
			<path style="fill:#FFCC0D;" d="M155,91.4c0.4-0.4,0.6-0.8,1-1.1C155.8,90.6,155.4,91,155,91.4z"/>
			<path style="fill:#FFCC0D;" d="M147.4,98.6c0.9-0.8,1.8-1.5,2.7-2.4C149.2,96.9,148.3,97.7,147.4,98.6z"/>
			<path style="fill:#FFCC0D;" d="M165.5,78.7c0.2-0.3,0.4-0.6,0.6-0.9C165.9,78,165.7,78.3,165.5,78.7z"/>
			<path style="fill:#FFCC0D;" d="M166.9,76.5c0.2-0.3,0.4-0.6,0.6-0.9C167.3,75.9,167.1,76.2,166.9,76.5z"/>
		</g>
		<g>
			<g>
				<path style="fill:#FF8001;" d="M77.2,124.9c0.1-0.1,0.2-0.1,0.3-0.2l0,0L77.2,124.9z"/>
			</g>
			<g>
				<path style="fill:#FF8001;" d="M56.1,102.5C55,85.3,69.6,63.1,93.7,48.1c29.2-18.3,61.2-18.8,71.4-1.3
					c8.1,14-0.1,35.3-18.6,52.6c24.2-20.1,35.7-46.6,25.9-63.5c-11.4-19.7-47.3-19-80.1,1.5C76.2,47.5,63.7,60.5,56.6,73.4
					c-0.4,0.8-1,1.2-1.8,1.4l-10.7,2.7c-10.6,14.3-18.2,29.3-22,42.1c-0.6,2.1,1.6,3.9,3.4,2.9l28.7-16.4
					C55.4,105.4,56.2,103.9,56.1,102.5z"/>
			</g>
		</g>
		<g>
			<path style="fill:#ED2A2F;" d="M227.4,29.9C207.1-5.3,143-4.1,84.4,32.6C64.1,45.2,47.2,60.4,34.5,76.4c-1.1,1.4,0.1,3.4,1.8,3.1
				l18.5-4.6c0.8-0.2,1.5-0.7,1.8-1.4c7.1-13,19.4-26,35.7-36.1c32.8-20.5,68.6-21.1,80.1-1.5c11.4,19.7-5.9,52.2-38.7,72.8
				c-18.8,11.8-38.6,16.9-54.2,15.6c-0.8-0.1-1.7,0.2-2.3,0.9l-47.9,48.1c-1.4,1.3-1.1,3.7,0.5,4.8c28.2,18.5,80.2,12.3,128.4-17.9
				C216.9,123.2,247.9,65,227.4,29.9z"/>
		</g>
	</g>
	<g>
		<g>
			<path style="fill:#FFFFFF;" d="M290.9,74.4c3.4,3.1,5.1,7.4,5.1,12.8c0,5.7-1.8,10.2-5.2,13.4c-3.4,3.2-8.2,4.8-14.4,4.8h-12.3
				v16.1h-6.8V69.8h19.3C282.7,69.8,287.5,71.3,290.9,74.4z M286,96c2.3-1.9,3.4-4.8,3.4-8.6c0-3.7-1.1-6.5-3.4-8.4
				s-5.5-2.9-9.8-2.9l-12.1,0.1v22.7h12.1C280.5,98.9,283.8,98,286,96z"/>
			<path style="fill:#FFFFFF;" d="M338.6,121.4l-9.9-16.3c-1.1,0.1-2,0.2-2.8,0.2h-12.6v16.1h-6.8V69.8h19.4
				c6.3,0,11.1,1.5,14.6,4.5c3.4,3.1,5.2,7.3,5.2,12.9c0,4.2-0.9,7.7-2.8,10.5c-1.8,2.9-4.6,4.9-8.1,6.2l11.6,17.5H338.6z
				 M325.8,98.9c4.2,0,7.6-1,9.8-2.9c2.3-1.9,3.4-4.8,3.4-8.6c0-3.7-1.1-6.5-3.4-8.4c-2.3-1.9-5.5-2.9-9.8-2.9h-12.6v22.8H325.8z"/>
			<path style="fill:#FFFFFF;" d="M394,72.8c4,2.3,7.2,5.5,9.5,9.5c2.3,4,3.5,8.4,3.5,13.2s-1.2,9.3-3.5,13.3
				c-2.3,4-5.5,7.3-9.5,9.6s-8.4,3.5-13.2,3.5c-4.8,0-9.2-1.1-13.2-3.5c-4-2.3-7.2-5.5-9.5-9.6c-2.3-4-3.5-8.5-3.5-13.3
				s1.2-9.3,3.5-13.2c2.3-4,5.4-7.2,9.5-9.5c4-2.3,8.4-3.4,13.2-3.4C385.6,69.3,390.1,70.5,394,72.8z M371.4,78.4
				c-2.9,1.8-5.3,4.2-7.1,7.2c-1.8,3.1-2.7,6.3-2.7,10c0,3.6,0.9,7,2.7,10s4.1,5.5,7.1,7.3c2.9,1.8,6.2,2.7,9.7,2.7s6.6-0.9,9.6-2.7
				c2.9-1.8,5.3-4.2,7-7.3c1.8-3.1,2.6-6.4,2.6-10c0-3.6-0.8-7-2.6-10c-1.8-3.1-4.1-5.5-7-7.2c-2.9-1.8-6.1-2.7-9.6-2.7
				S374.3,76.6,371.4,78.4z"/>
			<path style="fill:#FFFFFF;" d="M451,96.2h6.1v18.9c-2.5,2.1-5.4,3.7-8.8,5c-3.4,1.2-6.7,1.8-10,1.8c-4.8,0-9.2-1.1-13.2-3.5
				c-4-2.3-7.1-5.5-9.4-9.6c-2.3-4-3.4-8.5-3.4-13.3s1.2-9.3,3.5-13.2c2.3-4,5.5-7.2,9.5-9.5c4.1-2.3,8.5-3.4,13.4-3.4
				c3.5,0,6.8,0.7,10.1,1.9c3.3,1.2,6.2,3.1,8.6,5.3l-3.9,5.2c-2-1.9-4.2-3.4-6.8-4.5c-2.6-1.1-5.3-1.6-7.9-1.6
				c-3.6,0-6.8,0.9-9.8,2.7c-2.9,1.8-5.3,4.2-7.1,7.3c-1.8,3.1-2.6,6.4-2.6,10c0,3.6,0.9,7,2.7,10s4.1,5.5,7.1,7.3
				c2.9,1.8,6.3,2.7,9.8,2.7c2.1,0,4.2-0.4,6.4-1.1c2.1-0.7,4.1-1.7,6-3L451,96.2L451,96.2z"/>
			<path style="fill:#FFFFFF;" d="M503.5,121.4l-9.9-16.3c-1.1,0.1-2,0.2-2.8,0.2h-12.6v16.1h-6.8V69.8h19.4
				c6.3,0,11.1,1.5,14.6,4.5c3.4,3.1,5.2,7.3,5.2,12.9c0,4.2-0.9,7.7-2.8,10.5c-1.8,2.9-4.6,4.9-8.1,6.2l11.6,17.5H503.5z
				 M490.8,98.9c4.2,0,7.6-1,9.8-2.9c2.3-1.9,3.4-4.8,3.4-8.6c0-3.7-1.1-6.5-3.4-8.4s-5.5-2.9-9.8-2.9h-12.6v22.8H490.8z"/>
			<path style="fill:#FFFFFF;" d="M524.1,69.8h34.5v6.4h-27.7v16h24.8v6.4h-24.8V115h28.6v6.4h-35.4L524.1,69.8L524.1,69.8z"/>
			<path style="fill:#FFFFFF;" d="M607.2,69.8h6.7v51.7H607l-28.5-40v40h-6.8V69.8h6.9l28.5,40.1L607.2,69.8L607.2,69.8z"/>
			<path style="fill:#FFFFFF;" d="M623.2,69.8h38.9v6.5H646v45.2h-6.8V76.3h-16L623.2,69.8L623.2,69.8z"/>
			<path style="fill:#FFFFFF;" d="M671.2,69.8h6.8v51.7h-6.8V69.8z"/>
			<path style="fill:#FFFFFF;" d="M715.6,77.1c-2.5-0.8-4.8-1.1-6.8-1.1c-2.9,0-5.2,0.6-6.9,1.7s-2.6,2.8-2.6,4.8
				c0,1.8,0.6,3.3,1.6,4.5c1,1.1,2.3,2.1,3.9,2.8c1.5,0.7,3.6,1.4,6.4,2.3c3.4,1.1,6.1,2.1,8.2,3.1c2.1,1,3.9,2.5,5.3,4.4
				c1.5,1.9,2.2,4.5,2.2,7.7c0,3-0.7,5.5-2.3,7.7c-1.6,2.2-3.7,3.9-6.4,5.2c-2.8,1.2-6,1.8-9.6,1.8c-3.7,0-7.2-0.8-10.7-2.2
				s-6.4-3.4-8.9-5.9l3-6.1c2.4,2.4,5.1,4.3,8,5.5c2.9,1.3,5.8,1.9,8.7,1.9c3.3,0,5.9-0.7,7.8-2c1.9-1.3,2.9-3.2,2.9-5.5
				c0-1.8-0.6-3.3-1.6-4.5c-1-1.1-2.4-2.1-4-2.8s-3.8-1.4-6.4-2.3c-3.3-1.1-6-2-8.1-3.1c-2.1-1-3.9-2.4-5.3-4.4
				c-1.5-1.9-2.2-4.5-2.2-7.6c0-2.8,0.7-5.2,2.2-7.3c1.5-2.1,3.5-3.7,6.2-4.9c2.7-1.1,5.7-1.7,9.2-1.7c2.9,0,5.9,0.5,8.8,1.3
				c2.9,1,5.4,2.1,7.6,3.6l-2.9,6.3C720.4,79.1,718,77.9,715.6,77.1z"/>
		</g>
		<g>
			<path style="fill:#FFFFFF;" d="M748.3,79.8c-0.4,1-0.9,1.7-1.6,2.5c-0.6,0.7-1.5,1.2-2.4,1.6c-0.9,0.4-1.8,0.6-2.9,0.6
				c-1,0-2-0.2-2.9-0.6c-0.9-0.4-1.7-1-2.3-1.6c-0.6-0.7-1.2-1.5-1.6-2.5c-0.4-1-0.6-1.9-0.6-3c0-1.1,0.2-2,0.6-3
				c0.4-1,0.9-1.7,1.6-2.5c0.6-0.7,1.5-1.2,2.4-1.6c0.9-0.4,1.8-0.6,2.9-0.6s2,0.2,2.9,0.6c0.9,0.4,1.7,1,2.3,1.6
				c0.6,0.7,1.2,1.5,1.6,2.5c0.4,1,0.6,1.9,0.6,3C748.8,77.9,748.6,78.9,748.3,79.8z M747.2,74.3c-0.3-0.8-0.7-1.5-1.3-2.1
				c-0.6-0.6-1.2-1.1-2-1.4c-0.7-0.4-1.6-0.5-2.5-0.5c-0.9,0-1.8,0.2-2.5,0.5c-0.7,0.4-1.5,0.9-2,1.4c-0.6,0.6-1,1.3-1.3,2.1
				c-0.4,0.8-0.5,1.6-0.5,2.6c0,1,0.2,1.8,0.5,2.6c0.3,0.8,0.7,1.5,1.3,2.1c0.6,0.6,1.2,1.1,2,1.4c0.7,0.4,1.6,0.5,2.5,0.5
				c0.9,0,1.8-0.2,2.5-0.5c0.7-0.4,1.5-0.9,2-1.4c0.6-0.6,1-1.3,1.3-2.1c0.3-0.8,0.5-1.6,0.5-2.6C747.7,75.9,747.6,75,747.2,74.3z
				 M744.5,76.9c-0.3,0.4-0.7,0.7-1.2,1l1.9,3h-2l-1.7-2.7h-1.4v2.7h-1.8v-8.1h3.5c0.9,0,1.7,0.2,2.2,0.7c0.6,0.5,0.8,1.1,0.8,2
				C744.9,75.9,744.8,76.5,744.5,76.9z M742.8,74.5c-0.3-0.2-0.6-0.3-1-0.3h-1.7v2.4h1.8c0.5,0,0.7-0.1,1-0.3
				c0.3-0.2,0.4-0.5,0.4-0.9C743.2,74.9,743.1,74.7,742.8,74.5z"/>
		</g>
	</g>
</g>
</svg>
