<?xml version="1.0" encoding="utf-8"?>
<!-- Generator: Adobe Illustrator 24.0.3, SVG Export Plug-In . SVG Version: 6.00 Build 0)  -->
<svg version="1.1" id="Progrentis" xmlns="http://www.w3.org/2000/svg" xmlns:xlink="http://www.w3.org/1999/xlink" x="0px" y="0px"
	 viewBox="0 0 958 254" style="enable-background:new 0 0 958 254;" xml:space="preserve">
<g>
	<g>
		<g>
			<path style="fill:#FFCC0D;" d="M194.9,100.1c0.2-0.4,0.3-0.7,0.6-1.1C195.3,99.4,195.1,99.7,194.9,100.1z"/>
			<path style="fill:#FFCC0D;" d="M199.1,91.9c0.1-0.2,0.2-0.5,0.3-0.8C199.3,91.3,199.2,91.6,199.1,91.9z"/>
			<path style="fill:#FFCC0D;" d="M161.6,136c2.2-1.5,4.1-3.2,6.2-4.9c23-21.5,33.2-48.1,23.1-65.4c-12.6-21.8-52.4-21.1-88.8,1.7
				C72.3,86,54,113.6,55.4,135c0.1,1.8-0.8,3.6-2.4,4.4l-22.1,12.6c-4.4,18.1-3.3,35,3.7,47c1.4,2.4,2.9,4.4,4.7,6.4l42.4-42.6
				c0.5-0.5,1.1-0.8,1.8-1c-5.7-2.1-10.4-5.7-13.3-10.7c-10.4-18.1,5.5-47.9,35.5-66.9c30.1-18.8,63-19.4,73.6-1.4
				C187.4,97.2,179.6,118.4,161.6,136z M81.9,162.8C82,162.8,82,162.8,81.9,162.8c0,0.1-0.1,0.1-0.2,0.2L81.9,162.8z"/>
			<path style="fill:#FFCC0D;" d="M197.9,94.6c0.1-0.2,0.2-0.6,0.5-0.8C198.2,94,198,94.4,197.9,94.6z"/>
			<path style="fill:#FFCC0D;" d="M196.5,97.3c0.1-0.4,0.3-0.6,0.5-1C196.8,96.7,196.6,97,196.5,97.3z"/>
			<path style="fill:#FFCC0D;" d="M203,80.9c0-0.1,0.1-0.2,0.1-0.4C203,80.7,203,80.8,203,80.9z"/>
			<path style="fill:#FFCC0D;" d="M201.3,86.4c0.1-0.2,0.1-0.4,0.2-0.6C201.5,85.9,201.4,86.1,201.3,86.4z"/>
			<path style="fill:#FFCC0D;" d="M202.2,83.7c0-0.1,0.1-0.4,0.1-0.5C202.3,83.3,202.2,83.5,202.2,83.7z"/>
			<path style="fill:#FFCC0D;" d="M200.3,89.1c0.1-0.2,0.2-0.5,0.2-0.7C200.5,88.6,200.4,88.9,200.3,89.1z"/>
			<path style="fill:#FFCC0D;" d="M185.5,113.5c0.3-0.5,0.7-0.8,1-1.3C186.2,112.7,185.8,113.2,185.5,113.5z"/>
			<path style="fill:#FFCC0D;" d="M187.7,110.9c0.3-0.4,0.6-0.8,0.9-1.2C188.2,110.1,187.9,110.4,187.7,110.9z"/>
			<path style="fill:#FFCC0D;" d="M189.6,108.2c0.2-0.4,0.6-0.8,0.8-1.2C190.2,107.4,189.9,107.8,189.6,108.2z"/>
			<path style="fill:#FFCC0D;" d="M183.3,116.1c0.3-0.5,0.7-0.8,1-1.3C184,115.3,183.6,115.8,183.3,116.1z"/>
			<path style="fill:#FFCC0D;" d="M181,118.7c0.3-0.5,0.8-0.8,1.1-1.3C181.7,117.9,181.4,118.3,181,118.7z"/>
			<path style="fill:#FFCC0D;" d="M174.8,124.9c-0.5,0.5-1,1-1.5,1.4C173.9,125.9,174.4,125.4,174.8,124.9z"/>
			<path style="fill:#FFCC0D;" d="M177.3,122.4c-0.5,0.5-0.9,1-1.4,1.4C176.4,123.4,176.9,122.9,177.3,122.4z"/>
			<path style="fill:#FFCC0D;" d="M178.5,121.4c0.5-0.5,0.8-1,1.3-1.3C179.4,120.4,178.9,120.9,178.5,121.4z"/>
			<path style="fill:#FFCC0D;" d="M169,130.3c1.1-1,2.3-1.9,3.3-3C171.3,128.3,170.1,129.2,169,130.3z"/>
			<path style="fill:#FFCC0D;" d="M191.6,105.5c0.2-0.4,0.5-0.7,0.8-1.1C192,104.7,191.8,105.1,191.6,105.5z"/>
			<path style="fill:#FFCC0D;" d="M193.3,102.8c0.2-0.4,0.5-0.7,0.7-1.1C193.7,102.1,193.5,102.4,193.3,102.8z"/>
		</g>
		<g>
			<g>
				<path style="fill:#FF8001;" d="M81.7,163c0.1-0.1,0.2-0.1,0.3-0.2l0,0L81.7,163z"/>
			</g>
			<g>
				<path style="fill:#FF8001;" d="M55.4,135.2c-1.4-21.4,16.8-49,46.8-67.7c36.3-22.7,76.1-23.4,88.8-1.7
					c10.1,17.4-0.1,43.9-23.1,65.4c30.1-25,44.5-57.9,32.2-79c-14.2-24.5-58.8-23.7-99.6,1.9C80.4,66.8,64.9,82.9,56.1,99
					c-0.5,1-1.3,1.5-2.3,1.8l-13.3,3.3c-13.2,17.8-22.7,36.4-27.4,52.3c-0.8,2.6,1.9,4.9,4.2,3.6L53,139.7
					C54.6,138.7,55.5,137,55.4,135.2z"/>
			</g>
		</g>
		<g>
			<path style="fill:#ED2A2F;" d="M268.6,44.9c-25.3-43.8-105.1-42.2-178,3.3c-25.2,15.7-46.2,34.6-62,54.5
				c-1.4,1.8,0.1,4.3,2.3,3.8l23-5.7c1-0.2,1.8-0.8,2.3-1.8c8.8-16.2,24.2-32.4,44.3-44.9c40.8-25.5,85.4-26.3,99.6-1.9
				c14.2,24.5-7.3,65-48.1,90.5c-23.4,14.6-48,21.1-67.4,19.4c-1-0.1-2.1,0.2-2.9,1.1l-59.6,59.8c-1.7,1.7-1.4,4.6,0.6,5.9
				c35.1,23,99.7,15.3,159.7-22.2C255.4,161,294,88.5,268.6,44.9z"/>
		</g>
	</g>
	<g>
		<g>
			<path d="M347.5,100.2c4.2,3.8,6.3,9.2,6.3,15.9c0,7.1-2.2,12.7-6.4,16.7s-10.2,5.9-17.9,5.9h-15.4v20h-8.5V94.5h23.9
				C337.3,94.5,343.3,96.4,347.5,100.2z M341.4,127.1c2.9-2.4,4.2-5.9,4.2-10.7c0-4.6-1.4-8.1-4.2-10.5s-6.9-3.6-12.1-3.6l-15,0.1
				v28.2h15C334.6,130.8,338.7,129.6,341.4,127.1z"/>
			<path d="M406.7,158.7l-12.3-20.2c-1.4,0.1-2.5,0.2-3.4,0.2h-15.7v20h-8.5V94.5H391c7.8,0,13.9,1.9,18.2,5.6
				c4.2,3.8,6.4,9,6.4,16.1c0,5.2-1.1,9.5-3.4,13.1c-2.3,3.6-5.7,6.1-10.1,7.7l14.4,21.8H406.7z M390.9,130.8
				c5.3,0,9.4-1.2,12.1-3.6c2.9-2.4,4.2-5.9,4.2-10.7c0-4.6-1.4-8.1-4.2-10.5s-6.9-3.6-12.1-3.6h-15.7v28.3H390.9z"/>
			<path d="M475.7,98.3c4.9,2.9,8.9,6.8,11.8,11.8c2.9,5,4.4,10.5,4.4,16.4s-1.5,11.5-4.4,16.5c-2.9,5-6.9,9-11.8,11.9
				c-4.9,2.9-10.4,4.4-16.4,4.4c-6,0-11.5-1.4-16.4-4.4c-4.9-2.9-8.9-6.9-11.8-11.9c-2.9-5-4.4-10.6-4.4-16.5s1.5-11.5,4.4-16.4
				c2.9-5,6.8-8.9,11.8-11.8c4.9-2.9,10.4-4.3,16.4-4.3C465.3,93.9,470.8,95.4,475.7,98.3z M447.5,105.2c-3.7,2.3-6.6,5.2-8.8,8.9
				c-2.2,3.8-3.3,7.9-3.3,12.5c0,4.5,1.1,8.7,3.3,12.5c2.2,3.8,5.2,6.8,8.8,9c3.7,2.3,7.7,3.3,12,3.3s8.3-1.1,11.9-3.3
				c3.7-2.3,6.5-5.2,8.7-9c2.2-3.8,3.2-8,3.2-12.5s-1-8.7-3.2-12.5c-2.2-3.8-5-6.8-8.7-8.9c-3.7-2.3-7.6-3.3-11.9-3.3
				S451.2,102.9,447.5,105.2z"/>
			<path d="M546.7,127.3h7.6v23.6c-3.1,2.6-6.8,4.6-11,6.2c-4.2,1.5-8.4,2.3-12.5,2.3c-6,0-11.5-1.4-16.4-4.4
				c-4.9-2.9-8.8-6.9-11.7-11.9c-2.9-5-4.2-10.6-4.2-16.5s1.5-11.5,4.4-16.4c2.9-5,6.9-8.9,11.8-11.8c5-2.9,10.5-4.3,16.6-4.3
				c4.4,0,8.5,0.8,12.6,2.4c4.1,1.5,7.7,3.8,10.7,6.5l-4.8,6.4c-2.5-2.4-5.3-4.3-8.5-5.6c-3.2-1.3-6.5-2-9.9-2
				c-4.5,0-8.5,1.1-12.1,3.3c-3.7,2.3-6.6,5.2-8.8,9c-2.2,3.8-3.2,8-3.2,12.5s1.1,8.7,3.3,12.5c2.2,3.8,5.2,6.9,8.8,9
				c3.7,2.3,7.8,3.3,12.1,3.3c2.6,0,5.3-0.5,7.9-1.3c2.6-0.8,5.2-2.1,7.4-3.7v-19.2H546.7z"/>
			<path d="M611.9,158.7l-12.3-20.2c-1.4,0.1-2.5,0.2-3.4,0.2h-15.7v20H572V94.5h24.2c7.8,0,13.9,1.9,18.2,5.6
				c4.2,3.8,6.4,9,6.4,16.1c0,5.2-1.1,9.5-3.4,13.1c-2.3,3.6-5.7,6.1-10.1,7.7l14.4,21.8H611.9z M596.2,130.8
				c5.3,0,9.4-1.2,12.1-3.6c2.9-2.4,4.2-5.9,4.2-10.7c0-4.6-1.4-8.1-4.2-10.5c-2.9-2.4-6.9-3.6-12.1-3.6h-15.7v28.3H596.2z"/>
			<path d="M637.5,94.5h43v8H646v19.9h30.8v8H646v20.5h35.5v8h-44L637.5,94.5L637.5,94.5z"/>
			<path d="M740.9,94.5h8.4v64.2h-8.6L705.2,109v49.7h-8.5V94.5h8.6l35.4,49.8V94.5H740.9z"/>
			<path d="M760.8,94.5h48.4v8.1h-20.1v56.2h-8.5v-56.2h-19.9v-8.1H760.8z"/>
			<path d="M820.5,94.5h8.5v64.2h-8.5V94.5z"/>
			<path d="M875.6,103.6c-3.1-1-6-1.4-8.5-1.4c-3.6,0-6.4,0.7-8.6,2.1s-3.2,3.5-3.2,5.9c0,2.3,0.7,4.2,1.9,5.6
				c1.3,1.4,2.9,2.6,4.8,3.5c1.8,0.8,4.5,1.8,7.9,2.9c4.2,1.3,7.6,2.6,10.2,3.8c2.6,1.2,4.8,3.1,6.6,5.5c1.8,2.4,2.8,5.6,2.8,9.6
				c0,3.7-0.9,6.9-2.9,9.6c-1.9,2.7-4.6,4.9-8,6.4c-3.4,1.5-7.4,2.3-11.9,2.3c-4.6,0-8.9-1-13.3-2.7s-8-4.3-11.1-7.4l3.8-7.6
				c3,3,6.3,5.4,10,6.9c3.7,1.7,7.2,2.4,10.8,2.4c4.1,0,7.3-0.8,9.7-2.5c2.4-1.7,3.6-3.9,3.6-6.8c0-2.3-0.7-4.2-1.9-5.6
				s-3-2.6-4.9-3.5c-1.9-0.8-4.7-1.8-8-2.9c-4.1-1.3-7.4-2.5-10.1-3.8c-2.6-1.2-4.8-3-6.5-5.5c-1.8-2.4-2.8-5.6-2.8-9.4
				c0-3.5,0.9-6.4,2.8-9c1.8-2.6,4.4-4.6,7.7-6.1c3.3-1.4,7.1-2.1,11.5-2.1c3.7,0,7.3,0.6,10.9,1.7c3.6,1.2,6.8,2.6,9.5,4.5
				l-3.6,7.9C881.7,106,878.7,104.6,875.6,103.6z"/>
		</g>
		<g>
			<path d="M916.3,107c-0.5,1.2-1.1,2.1-1.9,3.1c-0.8,0.8-1.8,1.5-3,2c-1.1,0.5-2.3,0.7-3.7,0.7c-1.3,0-2.5-0.2-3.6-0.7
				c-1.1-0.5-2.1-1.2-2.9-2s-1.5-1.9-1.9-3.1c-0.5-1.2-0.7-2.4-0.7-3.7c0-1.3,0.2-2.5,0.7-3.7c0.5-1.2,1.1-2.1,1.9-3.1
				c0.8-0.8,1.8-1.5,3-2c1.1-0.5,2.3-0.7,3.7-0.7c1.4,0,2.5,0.2,3.6,0.7c1.1,0.5,2.1,1.2,2.9,2s1.5,1.9,1.9,3.1
				c0.5,1.2,0.7,2.4,0.7,3.7C917,104.6,916.8,105.8,916.3,107z M915.1,100.1c-0.3-1-0.9-1.9-1.6-2.6c-0.7-0.7-1.5-1.3-2.5-1.8
				c-0.9-0.5-1.9-0.6-3.1-0.6s-2.2,0.2-3.1,0.6c-0.9,0.5-1.8,1.1-2.5,1.8c-0.7,0.7-1.3,1.7-1.6,2.6c-0.5,1-0.6,2-0.6,3.2
				c0,1.2,0.2,2.3,0.6,3.2s0.9,1.9,1.6,2.6c0.7,0.7,1.5,1.3,2.5,1.8c0.9,0.5,1.9,0.6,3.1,0.6s2.2-0.2,3.1-0.6
				c0.9-0.5,1.8-1.1,2.5-1.8c0.7-0.7,1.3-1.7,1.6-2.6c0.3-1,0.6-2,0.6-3.2C915.6,102.1,915.5,101,915.1,100.1z M911.6,103.3
				c-0.3,0.5-0.9,0.8-1.5,1.2l2.4,3.7H910l-2.1-3.3h-1.7v3.3h-2.2V98h4.4c1.1,0,2.1,0.2,2.8,0.8c0.7,0.6,1,1.4,1,2.5
				C912.2,102.1,912.1,102.8,911.6,103.3z M909.6,100.3c-0.3-0.2-0.7-0.4-1.3-0.4h-2.1v3h2.2c0.6,0,0.9-0.1,1.3-0.4
				c0.3-0.2,0.5-0.6,0.5-1.1C910,100.9,909.9,100.5,909.6,100.3z"/>
		</g>
	</g>
</g>
</svg>
